<?xml version="1.0" encoding="UTF-8"?>
<!DOCTYPE svg PUBLIC "-//W3C//DTD SVG 1.1//EN" "http://www.w3.org/Graphics/SVG/1.1/DTD/svg11.dtd">
<svg
    xmlns="http://www.w3.org/2000/svg"
    xmlns:xlink="http://www.w3.org/1999/xlink"
    version="1.1"
    width="1600px"
    height="1600px"
    style="shape-rendering:geometricPrecision; text-rendering:geometricPrecision; image-rendering:optimizeQuality; fill-rule:evenodd; clip-rule:evenodd"
>
    <defs>
        <linearGradient id="grad" x1="0%" y1="0%" x2="100%" y2="0%">
            <stop offset="0%" style="stop-color:rgb(0,255,255);stop-opacity:1" />
            <stop offset="100%" style="stop-color:rgb(0,0,255);stop-opacity:1" />
        </linearGradient>
    </defs>
    <g>
        <path
            style="opacity:0.992"
            fill="url(#grad)"
            d="M 1286.5,-0.5 C 1297.17,-0.5 1307.83,-0.5 1318.5,-0.5C 1383.33,9.50224 1426.5,45.5022 1448,107.5C 1464.69,177.454 1444.52,233.954 1387.5,277C 1341.89,305.72 1293.89,310.387 1243.5,291C 1187.98,265.179 1157.15,221.679 1151,160.5C 1150.4,88.4921 1182.9,37.9921 1248.5,9C 1260.98,4.54564 1273.65,1.37898 1286.5,-0.5 Z"
        />
    </g>
    <g>
        <path
            style="opacity:0.992"
            fill="url(#grad)"
            d="M 863.5,93.5 C 880.814,94.3269 896.481,99.8269 910.5,110C 993.327,166.581 1076.33,222.914 1159.5,279C 1163.35,282.549 1166.85,286.383 1170,290.5C 1200.33,338.5 1230.67,386.5 1261,434.5C 1261.97,436.392 1262.64,438.392 1263,440.5C 1261.57,513.793 1261.07,587.127 1261.5,660.5C 1340.16,662.351 1418.83,664.184 1497.5,666C 1512.6,665.72 1527.27,668.054 1541.5,673C 1557.13,681.579 1564.8,694.912 1564.5,713C 1561.07,734.773 1549.07,749.773 1528.5,758C 1514.37,763.626 1499.7,766.96 1484.5,768C 1392.77,771.003 1301.11,775.337 1209.5,781C 1200.17,781.667 1190.83,781.667 1181.5,781C 1172.07,778.559 1164.57,773.392 1159,765.5C 1153.81,756.446 1149.14,747.112 1145,737.5C 1140.67,689.833 1136.33,642.167 1132,594.5C 1131.59,594.043 1131.09,593.709 1130.5,593.5C 1046.33,646.083 962.331,698.917 878.5,752C 945.22,858.589 1010.05,966.423 1073,1075.5C 1083.19,1093.88 1092.86,1112.55 1102,1131.5C 1106.08,1149.09 1102.75,1165.09 1092,1179.5C 1077.08,1196.88 1058.25,1207.38 1035.5,1211C 863.165,1209.85 690.832,1208.19 518.5,1206C 487.661,1204.33 462.828,1191.5 444,1167.5C 431.481,1148.25 431.481,1128.92 444,1109.5C 457.939,1088.76 477.106,1075.26 501.5,1069C 517.984,1065.57 534.651,1063.57 551.5,1063C 651.831,1057.53 752.164,1052.37 852.5,1047.5C 806.256,980.017 760.756,912.017 716,843.5C 708.312,841.155 701.979,836.822 697,830.5C 677,800.5 657,770.5 637,740.5C 623.523,716.57 616.023,690.903 614.5,663.5C 614.723,646.94 618.557,631.274 626,616.5C 635.844,598.975 648.344,583.475 663.5,570C 671.833,563 680.167,556 688.5,549C 788.167,480 887.833,411 987.5,342C 941.167,305 894.833,268 848.5,231C 727.486,232.701 606.486,235.035 485.5,238C 468.94,237.041 454.44,231.208 442,220.5C 434.012,209.132 432.345,196.799 437,183.5C 442.721,170.446 451.888,160.613 464.5,154C 481.934,144.52 500.267,137.186 519.5,132C 630.152,119.868 740.819,107.868 851.5,96C 855.665,95.2946 859.665,94.4613 863.5,93.5 Z"
        />
    </g>
    <g>
        <path
            style="opacity:0.988"
            fill="url(#grad)"
            d="M -0.5,362.5 C 235.501,362.167 471.501,362.5 707.5,363.5C 647.636,403.863 587.636,444.029 527.5,484C 351.5,484.5 175.5,484.667 -0.5,484.5C -0.5,443.833 -0.5,403.167 -0.5,362.5 Z"
        />
    </g>
    <g>
        <path
            style="opacity:0.989"
            fill="url(#grad)"
            d="M -0.5,605.5 C 151.167,605.333 302.834,605.5 454.5,606C 448.706,615.377 444.872,625.544 443,636.5C 440.105,656.79 441.439,676.79 447,696.5C 450.651,707.121 454.817,717.455 459.5,727.5C 306.167,727.5 152.833,727.5 -0.5,727.5C -0.5,686.833 -0.5,646.167 -0.5,605.5 Z"
        />
    </g>
    <g>
        <path
            style="opacity:0.989"
            fill="url(#grad)"
            d="M -0.5,847.5 C 171.167,847.333 342.834,847.5 514.5,848C 541.559,888.062 568.226,928.395 594.5,969C 396.167,969.5 197.834,969.667 -0.5,969.5C -0.5,928.833 -0.5,888.167 -0.5,847.5 Z"
        />
    </g>
</svg>